<svg id="Capa_1" enable-background="new 0 0 328.419 328.419" height="512" viewBox="0 0 328.419 328.419" width="512" xmlns="http://www.w3.org/2000/svg"><g><path d="m322.578 199.619c7.062-6.119 7.826-16.803 1.708-23.865-6.119-7.062-16.803-7.826-23.865-1.708-6.161 5.338-7.639 14.311-3.516 21.343h-38.7v8.459h38.7c-4.726 8.06-2.022 18.426 6.038 23.152s18.426 2.022 23.152-6.038c4.123-7.032 2.644-16.005-3.517-21.343m-19.54-12.688c0-4.672 3.787-8.459 8.459-8.459s8.459 3.787 8.459 8.459-3.787 8.459-8.459 8.459-8.459-3.788-8.459-8.459m8.459 33.836c-4.672 0-8.459-3.787-8.459-8.459s3.787-8.459 8.459-8.459 8.459 3.787 8.459 8.459-3.787 8.459-8.459 8.459" fill="#e56353"/><path d="m164.858 145.269c-7.608-2.335-14.189-7.2-18.652-13.788 25.027-25.153 24.925-65.832-.228-90.859s-65.832-24.925-90.859.228-24.925 65.832.228 90.859c5.559 5.531 12.084 9.998 19.252 13.18-1.476 2.188-3.177 4.215-5.075 6.048-44.241 43.268-19.583 118.047 42.084 123.884 2.326.254 4.779.423 7.233.592 116.271 6.81 178.487-57.184 178.064-157.763 0 0-80.362 43.776-132.047 27.619" fill="#fcd462"/><path d="m277.28 203.849c-24.785 45.256-72.748 71.903-141.775 71.903 68.984 0 116.905-26.815 141.69-71.903m11.674-27.958c-2.015 6.662-4.488 13.177-7.402 19.498 2.914-6.32 5.387-12.835 7.402-19.498m8.036-58.198s-4.61 2.495-12.266 6.091c7.402-3.426 11.927-5.879 12.266-6.048" fill="#57b694"/><path d="m281.552 195.39c-1.353 2.876-2.749 5.71-4.23 8.459 1.523-2.749 2.918-5.583 4.23-8.459" fill="#ea7a54"/><path d="m50.237 224.912c7.177 24.381 27.041 42.932 51.854 48.428-24.813-5.496-44.677-24.047-51.854-48.428" fill="#57b694"/><path d="m296.905 117.693c-.338 0-4.864 2.622-12.266 6.048-10.912 77.824-65.77 126.887-159.328 126.887-5.414 0-10.955-.169-16.622-.508l-7.275-.55c-21.654-1.807-41.23-13.596-52.954-31.891.448 2.357 1.027 4.686 1.734 6.979 7.106 24.49 27.003 43.155 51.897 48.682h1.311c2.71.563 5.449.972 8.205 1.227 2.326.254 4.779.423 7.275.592 5.118.296 10.193.465 15.1.465h1.523c69.026 0 116.99-26.773 141.775-71.903 1.523-2.749 2.918-5.583 4.23-8.459 2.914-6.321 5.387-12.836 7.402-19.498 5.545-18.85 8.24-38.424 7.993-58.071" fill="#fbce5f"/><path d="m36.406 84.702-33.836 27.238c-3.043 2.552-3.44 7.087-.888 10.13 1.279 1.524 3.131 2.451 5.118 2.559l45.975 2.622c-7.88-13.127-13.419-27.525-16.369-42.549z" fill="#e56353"/><path d="m62.249 61.566c-3.434 0-6.217 2.784-6.217 6.217 0 3.434 2.784 6.217 6.217 6.217 3.434 0 6.217-2.784 6.217-6.217s-2.783-6.217-6.217-6.217z" fill="#3a556a"/><path d="m255.328 114.013c-12.35 8.078-38.7 20.64-90.936 29.607-33.647 5.488-63.915 23.649-84.591 50.755-18.864 25.377-27.788 55.619 11.927 75.54 78.374 39.208 153.364-98.506 170.071-151.334.592-2.26-.761-4.571-3.02-5.163-1.182-.31-2.44-.093-3.451.595z" fill="#f7be56"/><g fill="#fcd462"><path d="m121.463 236.924c-8.459 11.843-19.667 21.148-31.13 14.888-10.489-5.498-8.163-13.915-3.172-20.936 2.232-3.156 4.977-5.915 8.121-8.163-2.104 1.796-3.967 3.858-5.541 6.133-4.822 6.81-7.148 15.015 3.045 20.344s20.598-1.904 28.677-12.266z"/><path d="m170.06 229.099c-8.459 11.8-19.667 21.148-31.13 14.888-10.489-5.541-8.163-13.915-3.172-21.148 2.266-3.042 5.008-5.699 8.121-7.867-2.093 1.791-3.955 3.838-5.541 6.091-4.864 6.81-7.148 15.015 3.045 20.344s20.684-1.945 28.677-12.308z"/><path d="m176.193 185.366c-8.459 11.8-19.667 21.148-31.172 14.888-10.489-5.541-8.121-13.915-3.172-21.148 2.233-3.169 4.995-5.93 8.163-8.163-2.099 1.751-3.974 3.754-5.583 5.964-4.822 6.852-7.106 15.015 3.045 20.386 10.152 5.371 20.895-1.776 28.719-11.927z"/><path d="m206.435 201.142c-5.287 7.444-12.393 13.196-19.625 9.39-6.598-3.468-5.118-8.798-1.988-13.196 1.408-2.006 3.154-3.752 5.16-5.16-1.334 1.137-2.526 2.429-3.553 3.849-3.003 4.23-4.483 9.474 1.946 12.689s13.111-1.059 18.06-7.572z"/><path d="m182.199 157.916c-5.287 7.444-12.393 13.154-19.625 9.347-6.598-3.468-5.118-8.755-1.988-13.196 1.42-1.97 3.148-3.698 5.118-5.118-1.33 1.127-2.51 2.421-3.511 3.849-3.045 4.23-4.483 9.432 1.946 12.689s13.027-1.058 18.06-7.571z"/><path d="m218.658 163.626c-5.287 7.444-12.223 13.281-19.625 9.39s-5.287-8.797-1.988-13.027c1.393-2.067 3.139-3.871 5.16-5.329-1.331 1.126-2.511 2.42-3.511 3.849-3.045 4.23-4.526 9.474 1.903 12.689 6.43 3.213 13.028-1.059 18.061-7.572z"/><path d="m126.073 195.474c-8.459 11.8-19.667 21.148-31.172 14.888-10.489-5.498-8.121-13.915-3.172-21.148 2.253-3.142 5.029-5.874 8.205-8.078-2.107 1.79-3.982 3.836-5.583 6.091-4.822 6.852-7.106 15.015 3.045 20.386 10.152 5.372 20.683-1.776 28.677-12.139z"/></g><path d="m112.242 247.794c-16.211 0-29.353 13.142-29.353 29.353s13.142 29.353 29.353 29.353 29.353-13.142 29.353-29.353c0-.014 0-.028 0-.042-.023-16.195-13.158-29.311-29.353-29.311z" fill="#3a556a"/><path d="m112.242 263.274c-7.662-.023-13.892 6.169-13.915 13.831s6.169 13.892 13.831 13.915 13.892-6.169 13.915-13.831c0-.014 0-.028 0-.042 0-7.645-6.185-13.85-13.831-13.873z" fill="#e1e6e9"/><path d="m211.595 247.794c-16.211-.023-29.372 13.1-29.395 29.311s13.1 29.372 29.311 29.395 29.372-13.1 29.395-29.311c0-.028 0-.056 0-.085-.024-16.178-13.133-29.287-29.311-29.31z" fill="#3a556a"/><path d="m211.595 263.274c-7.662-.023-13.892 6.169-13.915 13.831s6.169 13.892 13.831 13.915 13.892-6.169 13.915-13.831c0-.014 0-.028 0-.042-.001-7.645-6.186-13.85-13.831-13.873z" fill="#e1e6e9"/></g></svg>